<svg xmlns="http://www.w3.org/2000/svg" width="90.039" height="82.209" viewBox="0 0 90.039 82.209">
    <defs>
        <style>
            .cls-1{fill:#2a4b8c}
        </style>
    </defs>
    <g id="promotion" transform="rotate(164 40.442 38.9)">
        <path id="Trazado_2056" d="M2.2.2a1.466 1.466 0 1 1-2 .533A1.467 1.467 0 0 1 2.2.2zm0 0" class="cls-1" data-name="Trazado 2056" transform="translate(17.885 25.65)"/>
        <path id="Trazado_2057" d="M14.075 15.725L21.46 2.934A5.866 5.866 0 1 1 31.62 8.8l-4.4 7.621 3.81 2.2a1.467 1.467 0 0 1 .537 2l-1.907 3.3 28.088 5.509a4.4 4.4 0 0 1 3.566 6.592l-4.874 8.446 3.114 4.717a1.467 1.467 0 0 1 .046 1.541l-2.933 5.08a1.469 1.469 0 0 1-1.358.73l-5.641-.336-5.41 9.371a4.361 4.361 0 0 1-3.755 2.2h-.056a4.361 4.361 0 0 1-3.7-2.028l-19.156-24.4-12.458-7.196a10.265 10.265 0 0 1 8.942-18.422zm15.006-8.393A2.933 2.933 0 0 0 24 4.4l-7.332 12.7 5.08 2.933zM25.754 18.96l-1.466 2.54 2.54 1.466 1.466-2.54zm28.827 34.595l2.027-3.51-1.808-2.737-3.493 6.051zM39.2 64.133a1.466 1.466 0 0 0 2.522-.029L58.774 34.56a1.466 1.466 0 0 0-1.234-2.2 5.384 5.384 0 0 1-.8-.136L38.694 63.476c.378.487.427.534.506.657zm-2.458-3.143l16.952-29.362L28.11 26.61l-7.779 13.474zM3.916 21.591A7.327 7.327 0 0 0 6.6 31.607l11.43 6.6 7.332-12.7-11.43-6.6a7.341 7.341 0 0 0-10.016 2.684zm0 0" class="cls-1" data-name="Trazado 2057"/>
        <path id="Trazado_2058" d="M9.283 4.058a1.467 1.467 0 0 1-2 .537L4.74 3.129a1.468 1.468 0 0 0-2 .537A1.466 1.466 0 1 1 .2 2.2 4.4 4.4 0 0 1 6.206.589l2.54 1.466a1.467 1.467 0 0 1 .537 2.003zm0 0" class="cls-1" data-name="Trazado 2058" transform="translate(6.259 20.859)"/>
        <path id="Trazado_2059" d="M8.925 7.3L.754 2.748A1.466 1.466 0 0 1 2.18.186l8.171 4.547A1.466 1.466 0 0 1 8.925 7.3zm0 0" class="cls-1" data-name="Trazado 2059" transform="translate(63.976 57.337)"/>
        <path id="Trazado_2060" d="M7.513 2.883L1.847 4.4a1.466 1.466 0 1 1-.759-2.833L6.754.051a1.466 1.466 0 1 1 .758 2.833zm0 0" class="cls-1" data-name="Trazado 2060" transform="translate(64.532 46.561)"/>
        <path id="Trazado_2061" d="M1.57 7.513L.05 1.847a1.467 1.467 0 1 1 2.833-.76L4.4 6.753a1.466 1.466 0 1 1-2.833.76zm0 0" class="cls-1" data-name="Trazado 2061" transform="translate(56.236 62.447)"/>
    </g>
</svg>
