<svg xmlns="http://www.w3.org/2000/svg" width="45.937" height="45.938" viewBox="0 0 45.937 45.938">
    <defs>
        <style>
            .cls-1{fill:#764896}.cls-2{fill:#fff}
        </style>
    </defs>
    <g id="instagram_icon" transform="translate(-564 -564)">
        <circle id="Elipse_188" cx="22.969" cy="22.969" r="22.969" class="cls-1" data-name="Elipse 188" transform="translate(564 564)"/>
        <path id="Trazado_1928" d="M631.678 621.859c0 1.377.025 2.754 0 4.131a5.829 5.829 0 0 1-5.7 5.659q-4.13.052-8.261 0a5.806 5.806 0 0 1-5.683-5.674q-.057-4.206.007-8.414a5.818 5.818 0 0 1 5.5-5.538q4.321-.075 8.643 0a5.837 5.837 0 0 1 5.485 5.476c.039 1.452.007 2.907.007 4.36zm-9.878 7.754c1.249 0 2.5.013 3.748 0a3.872 3.872 0 0 0 4.068-4.036q.035-3.71.005-7.42a3.88 3.88 0 0 0-4.091-4.092q-3.672-.026-7.344 0a3.876 3.876 0 0 0-4.111 4.072q-.03 3.71 0 7.42a3.875 3.875 0 0 0 4.048 4.056c1.229.014 2.453 0 3.677 0z" class="cls-2" data-name="Trazado 1928" transform="translate(-34.875 -34.864)"/>
        <path id="Trazado_1929" d="M634.447 639.584a5.088 5.088 0 1 1 5.138-5.039 5.027 5.027 0 0 1-5.138 5.039zm.036-8.119a3.028 3.028 0 1 0 3.041 3.015 3.09 3.09 0 0 0-3.042-3.015z" class="cls-2" data-name="Trazado 1929" transform="translate(-47.523 -47.524)"/>
        <path id="Trazado_1930" d="M664.477 626.268a1.19 1.19 0 0 1-1.175 1.241 1.243 1.243 0 0 1-1.3-1.216 1.319 1.319 0 0 1 1.2-1.262 1.237 1.237 0 0 1 1.275 1.237z" class="cls-2" data-name="Trazado 1930" transform="translate(-71.203 -44.342)"/>
    </g>
</svg>
