<svg xmlns="http://www.w3.org/2000/svg" width="45.94" height="45.939" viewBox="0 0 45.94 45.939">
    <defs>
        <style>
            .cls-1{fill:#f9b004}.cls-2{fill:#fff}
        </style>
    </defs>
    <g id="facebook_icon" transform="translate(-972 -564)">
        <circle id="Elipse_189" cx="22.97" cy="22.97" r="22.97" class="cls-1" data-name="Elipse 189" transform="translate(972 564)"/>
        <path id="Trazado_1931" d="M1044.052 631.989s.025-5.535.005-7.828c-.006-.7.3-.974.969-.917a1.654 1.654 0 0 0 .376 0c.689-.1 1.618.36 2.02-.355a5.054 5.054 0 0 0 .393-2.755c-.028-.492-.394-.589-.806-.591-.691 0-1.383-.028-2.073 0-.656.025-.922-.275-.879-.9.006-.094 0-.188 0-.282-.033-2.709.087-2.853 2.78-3.027a.9.9 0 0 0 .982-.983c.139-2.267.023-2.4-2.294-2.328-2.884.086-4.556 1.251-4.934 3.55a17.775 17.775 0 0 0-.091 2.632c-.017 1.316-.022 1.328-1.3 1.34-1.426.014-1.5.089-1.508 1.488v.471c0 1.715 0 1.751 1.721 1.735.82-.008 1.111.28 1.1 1.095-.038 2.2 0 7.666 0 7.666z" class="cls-2" data-name="Trazado 1931" transform="translate(-47.807 -35.024)"/>
    </g>
</svg>
