<svg xmlns="http://www.w3.org/2000/svg" width="45.939" height="45.939" viewBox="0 0 45.939 45.939">
    <defs>
        <style>
            .cls-1{fill:#2eac67}
        </style>
    </defs>
    <g id="mail" transform="translate(-.001)">
        <g id="Grupo_808" data-name="Grupo 808" transform="translate(.001)">
            <path id="Trazado_2108" d="M22.97 0a22.97 22.97 0 1 0 22.97 22.97A22.97 22.97 0 0 0 22.97 0zm0 8.068l13.593 8.476H9.378zm13.763 22.011a2.461 2.461 0 0 1-2.463 2.461h-22.6a2.461 2.461 0 0 1-2.46-2.461v-13a2.448 2.448 0 0 1 .039-.421l12.987 8.1c.016.01.033.017.049.026l.052.027a1.363 1.363 0 0 0 .283.11l.03.006a1.4 1.4 0 0 0 .321.041 1.376 1.376 0 0 0 .321-.041l.03-.006a1.377 1.377 0 0 0 .283-.11l.052-.027c.016-.009.033-.016.049-.026l12.987-8.1a2.445 2.445 0 0 1 .039.421v13z" class="cls-1" data-name="Trazado 2108" transform="translate(-.001)"/>
        </g>
    </g>
</svg>
