<svg xmlns="http://www.w3.org/2000/svg" width="45.94" height="45.939" viewBox="0 0 45.94 45.939">
    <defs>
        <style>
            .cls-1{fill:#e61e68}.cls-2{fill:#fff}
        </style>
    </defs>
    <g id="twitter_icon" transform="translate(-1380 -564)">
        <circle id="Elipse_190" cx="22.97" cy="22.97" r="22.97" class="cls-1" data-name="Elipse 190" transform="translate(1380 564)"/>
        <path id="Trazado_1932" d="M1432.893 630.73a4.679 4.679 0 0 1-2.847-2.247c-.239-.465-.53-.961.517-.966a4.677 4.677 0 0 1-2.174-3.071c-.151-.873-.034-1 .845-.887 0-.334-.241-.557-.384-.815a4.047 4.047 0 0 1-.191-3.522c.265-.711.493-.755 1.022-.191a11.683 11.683 0 0 0 5.957 3.441c.2.048.407.071.609.117.694.16.949-.068.966-.821a4.131 4.131 0 0 1 5.983-3.578 2.994 2.994 0 0 0 3.307.076c.149-.092.341-.188.5-.043.2.174.088.39 0 .571-.165.34-.355.668-.526.986.148.153.274.09.4.077.259-.027.576-.345.763 0 .16.291-.16.559-.354.709-1.324 1.022-1.487 2.471-1.768 4a11.627 11.627 0 0 1-16.776 8.489 3.065 3.065 0 0 1-.276-.142c-.213-.132-.527-.222-.462-.544s.394-.278.642-.288a8.6 8.6 0 0 0 3.24-.7 2.273 2.273 0 0 0 1.007-.651z" class="cls-2" data-name="Trazado 1932" transform="translate(-34.875 -39.035)"/>
    </g>
</svg>
